#!OML:ASF H:\Terrain\Patient Classification 1\Walking\liu\liu.ASF
:FULLY-SPECIFIED
:DEGREES
291
root 10.0662 16.8619 3.817 5.93919 1.87543 3.45777
lowerback -6.11462 -3.71164 -4.76453
upperback -0.0749413 -4.68759 2.07924
thorax 3.90824 -2.44203 4.37123
lowerneck -21.7568 -4.01172 -11.7365
upperneck 22.6619 -4.80765 11.6077
head 11.5844 -1.7529 5.53437
rclavicle -6.8531e-014 4.77083e-015
rhumerus -47.0952 7.57294 -82.9559
rradius 40.1522
rwrist -22.7624
rhand -29.4573 -23.0574
rfingers 7.12502
rthumb -2.7934 -53.0189
lclavicle -6.8531e-014 4.77083e-015
lhumerus -10.9575 -21.9555 86.1681
lradius 27.0791
lwrist 7.32396
lhand -15.9866 -24.0726
lfingers 7.12502
lthumb 10.2131 5.65948
rfemur -37.4714 0.380204 15.0582
rtibia 41.8092
rfoot -21.8189 -10.2833
rtoes -20.9994
lfemur -3.43355 4.26955 -29.5339
ltibia 18.2551
lfoot -18.6626 4.35518
ltoes -3.29336
292
root 10.0653 16.8694 3.96389 5.83541 2.2068 3.4281
lowerback -6.05007 -3.7795 -4.77522
upperback -0.158513 -4.78035 2.07094
thorax 3.79566 -2.48389 4.36515
lowerneck -21.5277 -4.05399 -11.5217
upperneck 23.0718 -4.87202 11.1414
head 11.6845 -1.82889 5.32012
rclavicle 6.0033e-014 -5.56597e-015
rhumerus -47.5571 7.3741 -83.0292
rradius 39.8913
rwrist -22.348
rhand -29.109 -22.9381
rfingers 7.12502
rthumb -2.457 -52.9037
lclavicle 6.0033e-014 -5.56597e-015
lhumerus -10.9849 -22.9015 86.3679
lradius 27.6507
lwrist 8.41454
lhand -15.9465 -23.5383
lfingers 7.12502
lthumb 10.2518 6.19183
rfemur -37.5114 0.796087 14.7723
rtibia 39.9366
rfoot -21.3883 -9.27781
rtoes -18.2116
lfemur -2.25228 4.45783 -29.3452
ltibia 17.3052
lfoot -18.6477 3.85695
ltoes -3.04478
293
root 10.0715 16.8812 4.10203 5.79005 2.80569 3.464
lowerback -5.90387 -3.92422 -4.73298
upperback -0.251985 -4.98265 2.05475
thorax 3.63431 -2.57803 4.31518
lowerneck -20.9638 -3.98929 -12.0813
upperneck 22.6634 -4.85993 12.0029
head 11.459 -1.78192 5.73558
rclavicle 7.20594e-015 2.38542e-015
rhumerus -48.0595 7.58134 -83.3105
rradius 39.9192
rwrist -22.6357
rhand -29.7834 -25.3584
rfingers 7.12502
rthumb -3.10826 -55.3155
lclavicle 7.20594e-015 2.38542e-015
lhumerus -10.8966 -24.2438 86.5425
lradius 28.1323
lwrist 9.83555
lhand -15.758 -22.8496
lfingers 7.12502
lthumb 10.4336 6.87151
rfemur -37.6241 0.97685 14.3439
rtibia 38.1182
rfoot -21.0867 -9.31903
rtoes -19.7285
lfemur -0.996419 4.57658 -29.241
ltibia 16.1097
lfoot -18.3645 3.31392
ltoes -3.51839
294
root 10.0691 16.8895 4.23239 6.09928 2.98784 3.27906
lowerback -6.3064 -3.90251 -4.56727
upperback -0.233595 -4.95074 2.13407
thorax 3.86858 -2.56508 4.28163
lowerneck -20.9892 -4.06514 -12.2197
upperneck 22.4594 -4.95497 12.2006
head 11.4114 -1.81126 5.81247
rclavicle -1.50579e-014 1.35174e-014
rhumerus -48.1025 7.77051 -83.4575
rradius 39.8789
rwrist -23.0086
rhand -31.2137 -30.0435
rfingers 7.12502
rthumb -4.48954 -59.9759
lclavicle -1.50579e-014 1.35174e-014
lhumerus -10.4691 -25.3352 86.6462
lradius 28.6851
lwrist 10.9135
lhand -15.5716 -22.3676
lfingers 7.12502
lthumb 10.6134 7.34441
rfemur -38.3151 1.9639 14.0339
rtibia 36.3601
rfoot -21.483 -9.73267
rtoes -21.1653
lfemur -0.0396926 4.62853 -28.9355
ltibia 14.4994
lfoot -17.8271 3.18812
ltoes -3.32767
295
root 10.0641 16.8855 4.3745 6.32741 3.19415 3.45623
lowerback -6.79984 -3.95179 -4.85507
upperback -0.141798 -4.972 2.11064
thorax 4.26687 -2.59104 4.38017
lowerneck -21.8102 -4.26223 -11.6639
upperneck 22.9186 -5.18885 11.5423
head 11.7433 -1.92592 5.4436
rclavicle 2.76808e-014 7.15625e-015
rhumerus -48.0638 7.8231 -83.515
rradius 39.5789
rwrist -22.8658
rhand -31.2705 -30.0071
rfingers 7.12502
rthumb -4.54436 -59.9384
lclavicle 2.76808e-014 7.15625e-015
lhumerus -10.0708 -26.1945 86.6425
lradius 29.3266
lwrist 11.739
lhand -15.5237 -22.2248
lfingers 7.12502
lthumb 10.6597 7.48477
rfemur -38.895 2.79986 13.2765
rtibia 34.7426
rfoot -21.7945 -9.59742
rtoes -20.9777
lfemur 1.19993 4.39203 -29.0169
ltibia 12.6263
lfoot -17.3556 3.08744
ltoes -1.44458
